<?xml version="1.0" standalone="no"?>
<!DOCTYPE svg PUBLIC "-//W3C//DTD SVG 20010904//EN"
 "http://www.w3.org/TR/2001/REC-SVG-20010904/DTD/svg10.dtd">
<svg version="1.0" xmlns="http://www.w3.org/2000/svg"
 width="1280.000000pt" height="1280.000000pt" viewBox="0 0 1280.000000 1280.000000"
 preserveAspectRatio="xMidYMid meet">
<metadata>
Created by potrace 1.14, written by Peter Selinger 2001-2017
</metadata>
<g transform="translate(0.000000,1280.000000) scale(0.100000,-0.100000)"
fill="#000000" stroke="none">
<path d="M6087 12614 c-2 -2 -66 -7 -242 -19 -38 -3 -83 -7 -100 -9 -16 -3
-57 -8 -90 -11 -33 -4 -71 -8 -85 -11 -14 -2 -50 -7 -80 -10 -30 -3 -57 -7
-60 -9 -3 -2 -26 -6 -50 -10 -25 -4 -112 -20 -195 -36 -183 -37 -183 -37 -203
-43 -9 -3 -28 -7 -42 -10 -14 -2 -52 -12 -85 -21 -33 -9 -69 -18 -79 -20 -98
-22 -400 -120 -611 -200 -322 -122 -763 -338 -1000 -489 -27 -18 -92 -59 -143
-92 -241 -154 -509 -357 -762 -579 -236 -207 -551 -542 -756 -805 -172 -220
-303 -412 -449 -655 -387 -647 -661 -1396 -789 -2155 -3 -19 -8 -44 -10 -55
-4 -24 -15 -102 -23 -165 -2 -25 -6 -56 -8 -70 -1 -14 -6 -50 -9 -80 -8 -64
-11 -103 -22 -260 -10 -145 -10 -662 0 -795 13 -173 24 -291 31 -323 2 -10 6
-45 9 -77 8 -73 13 -108 33 -220 8 -49 17 -101 19 -115 2 -14 17 -88 34 -165
17 -77 33 -151 36 -165 11 -57 108 -387 153 -521 52 -153 135 -370 196 -509
34 -77 200 -417 228 -465 7 -11 40 -70 74 -130 124 -218 348 -551 487 -725 33
-41 80 -99 103 -129 344 -431 907 -936 1383 -1243 149 -96 206 -131 278 -172
42 -24 95 -54 117 -66 399 -227 928 -442 1400 -569 229 -61 597 -136 765 -156
75 -8 144 -17 165 -21 11 -2 58 -7 105 -10 47 -3 96 -7 109 -9 133 -23 801
-23 941 -1 14 3 67 7 119 10 51 4 96 8 100 10 3 2 38 7 76 10 68 7 104 11 155
21 14 3 41 7 60 10 19 3 60 10 90 15 30 6 69 12 85 15 35 6 96 17 110 21 6 1
21 5 35 8 14 3 43 10 65 15 22 5 51 12 65 15 53 10 119 26 205 51 50 15 99 28
109 31 47 9 372 120 509 173 388 151 882 408 1187 616 190 130 262 183 385
279 563 441 1042 970 1426 1576 231 363 439 788 589 1198 81 224 209 664 234
807 2 17 7 41 10 55 10 46 25 125 30 160 3 19 7 44 10 55 3 18 13 79 31 195 3
19 8 60 11 90 3 30 7 66 10 80 2 14 6 63 10 110 3 47 8 96 10 110 6 36 18 348
18 460 -1 107 -13 430 -19 474 -2 15 -7 69 -10 120 -4 50 -8 93 -10 96 -2 3
-6 34 -10 70 -6 59 -19 155 -29 205 -2 11 -7 42 -10 68 -4 27 -9 59 -12 70 -2
12 -7 37 -10 56 -7 42 -6 38 -44 206 -17 77 -38 163 -46 190 -8 28 -28 100
-45 160 -58 209 -182 560 -253 717 -13 29 -38 87 -56 128 -43 98 -161 334
-217 433 -24 42 -55 99 -70 125 -116 209 -334 524 -561 811 -160 203 -519 571
-743 762 -30 26 -70 60 -89 76 -33 28 -144 116 -250 198 -403 310 -973 628
-1450 810 -69 26 -138 53 -155 60 -106 45 -581 186 -710 211 -11 2 -31 6 -45
9 -14 3 -34 7 -45 9 -11 2 -38 9 -60 15 -22 6 -58 13 -80 16 -33 5 -69 12
-105 20 -3 1 -30 5 -60 10 -30 5 -57 9 -60 10 -9 2 -105 15 -145 20 -93 10
-131 15 -152 19 -12 3 -66 7 -120 11 -54 4 -114 8 -133 11 -35 5 -709 12 -713
8z"/>
</g>
</svg>
